<?xml version="1.0" standalone="no"?>
<!DOCTYPE svg PUBLIC "-//W3C//DTD SVG 20010904//EN"
 "http://www.w3.org/TR/2001/REC-SVG-20010904/DTD/svg10.dtd">
<svg version="1.0" xmlns="http://www.w3.org/2000/svg"
 width="525.000000pt" height="525.000000pt" viewBox="0 0 525.000000 525.000000"
 preserveAspectRatio="xMidYMid meet">
<metadata>
Created by potrace 1.11, written by Peter Selinger 2001-2013
</metadata>
<g transform="translate(0.000000,525.000000) scale(0.100000,-0.100000)"
fill="#000000" stroke="none">
<path d="M3089 5227 c-14 -12 -68 -56 -120 -98 -337 -274 -630 -569 -778 -783
-55 -81 -111 -188 -136 -261 -38 -111 -24 -253 30 -320 l22 -29 -75 -58 c-253
-193 -487 -455 -570 -636 -55 -120 -58 -227 -8 -303 95 -142 319 -153 724 -33
64 19 118 34 119 34 2 0 0 -30 -3 -67 -18 -200 -8 -553 22 -755 6 -40 10 -37
-137 -115 -198 -107 -393 -269 -484 -405 -48 -71 -104 -184 -154 -311 -35 -87
-81 -182 -118 -240 -26 -41 -25 -30 -38 -407 -3 -91 -8 -225 -11 -297 -3 -73
-2 -133 3 -134 4 0 52 -3 106 -5 73 -3 97 -1 98 8 5 74 8 153 14 318 14 440 9
398 63 502 26 51 63 131 81 178 128 324 253 454 628 652 104 55 96 54 218 44
145 -11 257 -45 336 -102 103 -75 142 -189 135 -404 -5 -140 -15 -220 -66
-500 -16 -91 -32 -183 -35 -205 -7 -47 -13 -82 -19 -110 -2 -12 -7 -48 -11
-80 -4 -33 -9 -68 -11 -78 -1 -9 0 -17 4 -18 4 0 14 -2 22 -3 8 -2 49 -6 89
-10 41 -4 78 -9 82 -12 12 -7 16 7 23 76 4 36 9 72 11 80 2 8 6 33 10 55 10
74 35 220 45 265 5 25 11 59 14 75 2 17 9 62 16 100 6 39 13 79 15 90 1 11 5
40 9 65 17 110 22 316 11 396 -35 240 -172 406 -400 482 -67 23 -215 50 -287
54 -27 1 -48 7 -49 12 -1 16 -5 45 -12 96 -18 124 -26 528 -13 595 3 11 5 30
5 43 1 13 5 21 10 17 17 -10 93 -18 171 -18 141 0 277 50 495 183 271 165 416
250 520 304 137 72 165 99 161 157 -4 54 -49 99 -99 99 -44 0 -196 -79 -467
-243 -318 -192 -371 -222 -446 -253 -61 -25 -81 -29 -169 -28 -107 0 -151 6
-149 20 2 14 24 136 29 169 21 115 85 330 144 487 21 54 25 58 64 68 394 96
694 267 867 494 246 325 139 682 -295 987 -45 32 -222 140 -228 139 -1 -1 -14
-11 -28 -23z m137 -293 c82 -58 131 -101 123 -107 -2 -2 -46 -21 -97 -42 -62
-25 -110 -53 -143 -83 -46 -41 -49 -42 -50 -20 -1 33 -10 112 -13 115 -2 3
-136 -36 -181 -52 -15 -6 -12 0 10 21 71 69 255 222 266 223 4 1 42 -24 85
-55z m218 -191 c170 -212 146 -397 -78 -603 l-27 -25 11 29 c6 16 9 30 8 31
-2 2 -47 16 -100 33 l-97 30 -23 -47 c-32 -65 -62 -77 -135 -56 -31 9 -79 28
-106 43 -59 30 -54 34 -117 -89 l-39 -77 72 -31 c40 -17 95 -39 124 -49 l52
-18 -102 -32 c-170 -52 -146 -57 -241 43 -82 86 -84 87 -103 69 -11 -11 -31
-29 -45 -42 l-25 -23 -52 21 c-44 17 -52 18 -56 5 -3 -8 -7 -22 -10 -30 -2 -8
-12 -15 -22 -16 -93 -6 -93 -5 -86 55 14 125 179 372 380 568 l58 57 1 -57 c0
-41 6 -66 20 -84 79 -106 252 -99 318 14 l19 31 15 -25 c33 -55 117 -76 178
-45 73 38 110 113 129 262 12 91 17 115 25 115 5 0 29 -26 54 -57z m-1054
-1138 c8 -2 35 -4 59 -4 37 -1 42 -4 38 -18 -65 -202 -84 -271 -112 -393 -18
-80 -35 -161 -39 -180 l-6 -35 -138 -42 c-288 -89 -439 -114 -539 -88 -23 5
-25 9 -19 44 21 133 271 425 531 623 142 107 146 109 225 93z"/>
</g>
</svg>
